<svg width="192" height="192" viewBox="0 0 192 192" fill="none" xmlns="http://www.w3.org/2000/svg">
<rect width="192" height="192" rx="60" fill="#FF8C00"/>
<rect width="192" height="192" rx="60" fill="#FF8C00"/>
<rect width="192" height="192" rx="60" fill="#FF8C00"/>
<path d="M105.144 37.6397C106.482 35.6423 108.848 35.4931 111.02 35.4922L113.844 35.5377C117.824 36.0411 120.589 38.4419 123.203 41.2164L125.517 43.6177C127.373 45.5141 129.299 47.3628 130.948 49.4475C133.407 52.5562 133.65 54.8236 133.649 58.5422C133.648 61.1791 133.895 63.6684 131.554 65.4798C130.385 66.3842 128.983 66.5403 127.553 66.5205C127.464 66.5192 127.394 66.4762 127.38 66.5681C125.508 79.0255 111 77.2784 109.857 66.715L98.9581 66.6548L97.5278 66.6558L97.2206 66.5833C97.3381 66.4866 97.5414 66.4461 97.685 66.3969L98.7039 66.0452C98.7747 65.9508 99.3222 65.7711 99.4653 65.7023C102.614 64.1903 104.719 60.8445 105.104 57.422C105.224 56.3502 105.152 55.21 105.153 54.1288L105.151 49.4355L105.144 37.6397ZM116.358 41.177C113.84 41.5497 114.168 43.5011 114.167 45.4255C114.164 47.9139 113.987 50.1302 116.971 51.0445C117.584 51.2325 118.471 51.1295 119.119 51.1311L122.804 51.1548C124.071 51.0569 125.283 49.9528 124.914 48.5841L124.896 48.5133C124.568 47.342 121.641 44.9155 120.72 44.0231C119.445 42.7873 118.348 41.0764 116.358 41.177Z" fill="white"/>
<path d="M64.8298 34.1586L66.4414 34.1414C67.022 31.7602 68.6376 29.6059 70.7295 28.3319C73.5478 26.6156 76.6648 26.757 79.8372 26.7553L92.5855 26.7466C94.3706 26.7433 96.2694 26.5863 98.0151 27.018C102.269 28.0703 105.015 31.42 105.034 35.7798C105.036 36.3694 104.979 37.07 105.145 37.6397L105.152 49.4355L105.152 54.1288C105.152 55.21 105.224 56.3502 105.104 57.422C104.719 60.8445 102.614 64.1903 99.4653 65.7023C99.3222 65.7711 98.7747 65.9508 98.7039 66.0452L97.685 66.3969C97.5414 66.4461 97.3381 66.4866 97.2206 66.5833L97.5278 66.6513L91.5534 66.5439C91.5575 67.138 91.5566 67.7711 91.4381 68.4009C90.2455 74.7414 82.0509 77.6617 77.3516 72.8778C76.1753 71.6805 74.8652 69.5169 74.7892 67.7603L74.7048 67.1534L74.6736 66.9581C74.615 66.6417 74.2017 66.8027 73.9541 66.7931C72.2117 66.7253 70.3306 66.0736 68.8966 65.1123C65.4353 62.792 64.7475 58.9678 64.7509 55.0766L64.7542 49.6614C64.7566 49.0167 64.7472 48.3281 64.8719 47.6948L64.9517 47.1863C64.9737 47.0217 65.0105 46.9477 65.1267 46.8295L65.1601 46.7967C64.7926 46.7375 64.4005 46.7805 64.0251 46.7387L63.9636 46.7314L62.3819 46.7188C62.0628 46.7155 61.7042 46.7317 61.3947 46.6556L61.332 46.6389C59.504 46.1652 59.7478 43.5681 61.6942 43.253C62.7189 43.0942 63.7928 43.3217 64.7987 43.1734C64.6933 41.6739 65.0409 39.2947 65.3598 37.8663C65.5194 37.8264 65.6492 37.7513 65.6594 37.5733C65.4623 37.5702 65.2547 37.5777 65.062 37.5331L64.9659 37.5092L60.0907 37.4805C59.768 37.477 59.4477 37.4913 59.1504 37.345L59.0859 37.3125C57.7897 36.6984 57.7344 34.633 59.1511 34.1783L59.208 34.1614C59.6464 34.0278 60.3457 34.1438 60.8116 34.1459L64.8298 34.1586Z" fill="#F5F5F5"/>
<path d="M64.9659 37.4892L60.0907 37.4805C59.768 37.477 59.4477 37.4912 59.1504 37.345L59.0859 37.3125C57.7897 36.6984 57.7344 34.6329 59.1511 34.1783L59.208 34.1614C59.6464 34.0278 60.3457 34.1437 60.8116 34.1459L64.8298 34.1586L70.3623 34.1676C70.7248 34.1692 71.1059 34.1608 71.4587 34.2519L71.5216 34.2672C72.885 34.625 72.6495 37.2206 70.803 37.4481C69.4695 37.6123 66.355 37.5648 64.9659 37.4892Z" fill="#E0E5EC"/>
<path d="M61.6942 43.253L87.3747 43.1789C88.2738 43.1791 89.685 42.9512 90.4961 43.4397L90.5641 43.4797C91.8589 44.2666 91.7686 46.1864 90.2872 46.6342L90.2098 46.6586C89.8644 46.7584 89.4777 46.7264 89.1205 46.7245L82.7338 46.7148L63.9636 46.7228L62.3819 46.7187C62.0628 46.7155 61.7042 46.7317 61.3948 46.6556L61.332 46.6389C59.504 46.1652 59.7478 43.5681 61.6942 43.253Z" fill="url(#paint0_linear_11_244)"/>
<path d="M81.0273 58.5852C85.8636 57.2669 91.005 60.7646 91.4781 65.6861C91.5031 65.9466 91.4948 66.2474 91.5534 66.5001C91.5575 67.138 91.5566 67.7711 91.4381 68.401C90.2455 74.7415 82.0509 77.6618 77.3516 72.8779C76.1753 71.6805 74.8652 69.5169 74.7892 67.7604L74.7048 67.1535C74.6927 63.3833 77.2852 59.5415 81.0273 58.5852Z" fill="url(#paint1_linear_11_244)"/>
<path d="M33.5471 97.4C34.1271 96.2 35.2171 95.6 36.8171 95.6C38.4371 95.6 39.6171 96.07 40.3571 97.01C41.1171 97.93 41.4971 99.46 41.4971 101.6V112.31L48.7871 96.23H52.3571L43.0271 116H36.0071L35.1071 101.6C35.0471 100.54 34.8671 99.65 34.5671 98.93C34.2871 98.21 33.9471 97.7 33.5471 97.4ZM62.8475 110.93C63.3475 111.27 63.5975 111.82 63.5975 112.58C63.5975 113.32 63.4075 113.93 63.0275 114.41C62.6475 114.89 62.1475 115.29 61.5275 115.61C60.2475 116.27 58.9175 116.6 57.5375 116.6C56.1575 116.6 55.0575 116.45 54.2375 116.15C53.4375 115.85 52.7675 115.42 52.2275 114.86C51.1675 113.8 50.6375 112.3 50.6375 110.36C50.6375 107.34 51.4575 104.91 53.0975 103.07C54.8575 101.09 57.2675 100.1 60.3275 100.1C62.2275 100.1 63.6475 100.5 64.5875 101.3C65.2875 101.9 65.6375 102.69 65.6375 103.67C65.6375 107.19 62.5975 108.95 56.5175 108.95C56.4375 109.47 56.3975 109.95 56.3975 110.39C56.3975 111.31 56.5975 111.95 56.9975 112.31C57.4175 112.65 58.0075 112.82 58.7675 112.82C59.5275 112.82 60.3075 112.65 61.1075 112.31C61.9275 111.95 62.5075 111.49 62.8475 110.93ZM56.7275 107.66C58.1475 107.66 59.2675 107.22 60.0875 106.34C60.9075 105.5 61.3175 104.41 61.3175 103.07C61.3175 102.61 61.2275 102.26 61.0475 102.02C60.8875 101.76 60.6375 101.63 60.2975 101.63C59.9575 101.63 59.6375 101.7 59.3375 101.84C59.0575 101.96 58.7675 102.24 58.4675 102.68C57.7275 103.68 57.1475 105.34 56.7275 107.66ZM79.3543 116.6C76.9343 116.6 75.7243 115.66 75.7243 113.78C75.7443 113.26 75.8343 112.56 75.9943 111.68L76.5343 108.92C77.0743 106.32 77.3443 104.73 77.3443 104.15C77.3443 102.99 77.0043 102.41 76.3243 102.41C75.1843 102.41 74.3143 103.9 73.7143 106.88L71.9443 116L65.9143 116.6L69.0343 100.67L73.9543 100.1L73.4743 103.04C74.4143 101.08 76.3243 100.1 79.2043 100.1C80.6043 100.1 81.5943 100.4 82.1743 101C82.7743 101.58 83.0743 102.53 83.0743 103.85C83.0743 105.09 82.7543 107.16 82.1143 110.06C81.8143 111.36 81.6643 112.26 81.6643 112.76C81.6643 113.24 81.7943 113.62 82.0543 113.9C82.3343 114.18 82.6743 114.34 83.0743 114.38C82.8743 115.06 82.4243 115.6 81.7243 116C81.0443 116.4 80.2543 116.6 79.3543 116.6ZM94.9229 100.1C95.6429 100.1 96.2829 100.18 96.8429 100.34C96.8629 100.26 96.8929 100.11 96.9329 99.89L97.0829 98.96C97.1629 98.56 97.2629 98.03 97.3829 97.37L97.8629 95L103.833 94.4L100.503 111.8C100.483 111.92 100.473 112.08 100.473 112.28V112.76C100.473 113.2 100.583 113.59 100.803 113.93C101.023 114.25 101.313 114.41 101.673 114.41C101.273 115.35 100.463 116.02 99.2429 116.42C98.8229 116.54 98.3129 116.6 97.7129 116.6C97.1329 116.6 96.5729 116.44 96.0329 116.12C95.4929 115.82 95.1429 115.41 94.9829 114.89C94.6629 115.41 94.1829 115.82 93.5429 116.12C92.9029 116.44 92.1129 116.6 91.1729 116.6C90.2529 116.6 89.4029 116.48 88.6229 116.24C87.8629 116 87.2429 115.62 86.7629 115.1C85.8829 114.08 85.4429 112.41 85.4429 110.09C85.4429 107.09 86.3229 104.68 88.0829 102.86C89.8429 101.02 92.1229 100.1 94.9229 100.1ZM94.7129 101.9C93.9729 101.9 93.4029 102.3 93.0029 103.1C92.6029 103.9 92.1929 105.29 91.7729 107.27C91.3729 109.25 91.1729 111.13 91.1729 112.91C91.1729 114.13 91.5329 114.74 92.2529 114.74C92.8929 114.74 93.4329 114.42 93.8729 113.78C94.3329 113.14 94.6529 112.29 94.8329 111.23L96.4529 102.44C96.0329 102.08 95.4529 101.9 94.7129 101.9Z" fill="white"/>
<path d="M106.353 97.4C106.933 96.2 108.023 95.6 109.623 95.6C111.243 95.6 112.423 96.07 113.163 97.01C113.923 97.93 114.303 99.46 114.303 101.6V112.31L121.593 96.23H125.163L115.833 116H108.813L107.913 101.6C107.853 100.54 107.673 99.65 107.373 98.93C107.093 98.21 106.753 97.7 106.353 97.4ZM131.172 114.35C130.552 115.85 129.252 116.6 127.272 116.6C126.252 116.6 125.422 116.25 124.782 115.55C124.242 114.93 123.972 114.31 123.972 113.69C123.972 112.07 124.342 109.68 125.082 106.52L126.192 100.7L132.282 100.1L130.452 109.58C130.112 111.06 129.942 112.06 129.942 112.58C129.942 113.72 130.352 114.31 131.172 114.35ZM126.732 96.53C126.732 95.75 127.052 95.15 127.692 94.73C128.352 94.31 129.152 94.1 130.092 94.1C131.032 94.1 131.782 94.31 132.342 94.73C132.922 95.15 133.212 95.75 133.212 96.53C133.212 97.31 132.892 97.9 132.252 98.3C131.632 98.7 130.852 98.9 129.912 98.9C128.972 98.9 128.202 98.7 127.602 98.3C127.022 97.9 126.732 97.31 126.732 96.53ZM134.208 113C134.208 112.46 134.348 111.51 134.628 110.15L136.218 102.05H134.448L134.568 101.15C136.968 100.43 139.328 99.19 141.648 97.43H143.088L142.368 100.7H144.708L144.438 102.05H142.128L140.598 110.15C140.338 111.39 140.208 112.22 140.208 112.64C140.208 113.6 140.628 114.18 141.468 114.38C141.268 115.06 140.808 115.6 140.088 116C139.368 116.4 138.498 116.6 137.478 116.6C136.458 116.6 135.658 116.28 135.078 115.64C134.498 115 134.208 114.12 134.208 113ZM156.6 110.93C157.1 111.27 157.35 111.82 157.35 112.58C157.35 113.32 157.16 113.93 156.78 114.41C156.4 114.89 155.9 115.29 155.28 115.61C154 116.27 152.67 116.6 151.29 116.6C149.91 116.6 148.81 116.45 147.99 116.15C147.19 115.85 146.52 115.42 145.98 114.86C144.92 113.8 144.39 112.3 144.39 110.36C144.39 107.34 145.21 104.91 146.85 103.07C148.61 101.09 151.02 100.1 154.08 100.1C155.98 100.1 157.4 100.5 158.34 101.3C159.04 101.9 159.39 102.69 159.39 103.67C159.39 107.19 156.35 108.95 150.27 108.95C150.19 109.47 150.15 109.95 150.15 110.39C150.15 111.31 150.35 111.95 150.75 112.31C151.17 112.65 151.76 112.82 152.52 112.82C153.28 112.82 154.06 112.65 154.86 112.31C155.68 111.95 156.26 111.49 156.6 110.93ZM150.48 107.66C151.9 107.66 153.02 107.22 153.84 106.34C154.66 105.5 155.07 104.41 155.07 103.07C155.07 102.61 154.98 102.26 154.8 102.02C154.64 101.76 154.39 101.63 154.05 101.63C153.71 101.63 153.39 101.7 153.09 101.84C152.81 101.96 152.52 102.24 152.22 102.68C151.48 103.68 150.9 105.34 150.48 107.66Z" fill="white"/>
<path d="M53.3337 140.38C53.7137 140.86 53.9037 141.49 53.9037 142.27C53.9037 143.35 53.5037 144.18 52.7037 144.76C51.9037 145.32 50.8737 145.6 49.6137 145.6C48.8937 145.6 47.9837 145.52 46.8837 145.36C44.7237 145.02 43.3137 144.85 42.6537 144.85C41.9937 144.85 41.5337 144.87 41.2737 144.91C41.0137 144.93 40.6737 144.96 40.2537 145L43.9437 125.2H56.8737C56.8737 126.42 56.5737 127.35 55.9737 127.99C55.3937 128.63 54.5237 128.95 53.3637 128.95C52.2037 128.95 51.0337 128.68 49.8537 128.14L48.9237 133.39H54.2637C54.2637 134.45 54.0037 135.28 53.4837 135.88C52.9637 136.46 52.2637 136.75 51.3837 136.75C50.5237 136.75 49.8237 136.65 49.2837 136.45C48.7437 136.25 48.4437 136.12 48.3837 136.06L47.3037 141.73C47.7837 141.79 48.4737 141.82 49.3737 141.82C50.9137 141.82 52.2337 141.34 53.3337 140.38ZM60.6563 145.09C60.0163 145.43 59.2563 145.6 58.3763 145.6C57.4963 145.6 56.8163 145.38 56.3363 144.94C55.8562 144.48 55.6162 143.82 55.6162 142.96C55.6162 142.08 55.9162 141.22 56.5163 140.38C57.1363 139.52 57.8963 138.85 58.7963 138.37C59.7163 137.89 60.4963 137.51 61.1363 137.23L59.2463 132.88C58.9063 132.14 58.4163 131.77 57.7763 131.77L57.5363 131.8H57.4463C57.5663 131.1 58.0363 130.48 58.8563 129.94C59.6763 129.38 60.5563 129.1 61.4963 129.1C63.0163 129.1 64.1263 129.86 64.8263 131.38L65.0663 131.86L66.3563 135.04C66.8963 134.8 67.2763 134.46 67.4963 134.02C67.7363 133.56 67.8563 132.89 67.8563 132.01C67.8563 131.11 67.6163 130.38 67.1363 129.82C67.8963 129.34 68.7763 129.1 69.7763 129.1C71.5763 129.1 72.4763 129.97 72.4763 131.71C72.4763 133.61 71.2863 135.11 68.9063 136.21L67.1063 137.05L68.7263 141.22C69.0463 142.06 69.4963 142.66 70.0763 143.02C70.3163 143.18 70.5763 143.27 70.8563 143.29C70.2563 144.27 69.3063 144.98 68.0063 145.42C67.6063 145.54 67.1363 145.6 66.5963 145.6C66.0563 145.6 65.4763 145.41 64.8563 145.03C64.2363 144.67 63.8163 144.2 63.5963 143.62L61.9463 139.33C60.8263 139.83 60.2663 140.99 60.2663 142.81C60.2663 143.65 60.3963 144.41 60.6563 145.09ZM87.2576 142.96C86.4176 143.8 85.4176 144.45 84.2576 144.91C83.1176 145.37 81.9776 145.6 80.8376 145.6C79.6976 145.6 78.9276 145.5 78.5276 145.3L77.5976 150.4L71.5076 151L75.6476 129.7L80.5376 129.19L80.1476 131.26C80.9876 129.84 82.2776 129.13 84.0176 129.13C85.9776 129.13 87.4776 129.76 88.5176 131.02C89.4376 132.16 89.8976 133.6 89.8976 135.34C89.8976 137.08 89.6676 138.57 89.2076 139.81C88.7476 141.05 88.0976 142.1 87.2576 142.96ZM78.8876 143.32C79.3076 143.68 79.7776 143.86 80.2976 143.86C80.8176 143.86 81.2276 143.76 81.5276 143.56C81.8276 143.36 82.0876 143.06 82.3076 142.66C82.9076 141.58 83.4476 139.4 83.9276 136.12C84.0676 135.16 84.1376 134.21 84.1376 133.27C84.1376 132.33 84.0276 131.71 83.8076 131.41C83.6076 131.11 83.3076 130.96 82.9076 130.96C81.6876 130.96 80.8776 132.15 80.4776 134.53L78.8876 143.32ZM101.095 136.57C101.815 135.29 102.175 134 102.175 132.7C102.175 131.84 101.865 131.41 101.245 131.41C100.765 131.41 100.275 131.82 99.7753 132.64C99.2553 133.46 98.9153 134.4 98.7553 135.46L97.1953 145L90.9853 145.6L94.0453 129.7L98.9953 129.1L98.4553 132.13C99.4353 130.11 101.025 129.1 103.225 129.1C104.385 129.1 105.275 129.4 105.895 130C106.535 130.6 106.855 131.52 106.855 132.76C106.855 133.98 106.445 134.98 105.625 135.76C104.825 136.54 103.735 136.93 102.355 136.93C101.755 136.93 101.335 136.81 101.095 136.57ZM119.5 139.93C120 140.27 120.25 140.82 120.25 141.58C120.25 142.32 120.06 142.93 119.68 143.41C119.3 143.89 118.8 144.29 118.18 144.61C116.9 145.27 115.57 145.6 114.19 145.6C112.81 145.6 111.71 145.45 110.89 145.15C110.09 144.85 109.42 144.42 108.88 143.86C107.82 142.8 107.29 141.3 107.29 139.36C107.29 136.34 108.11 133.91 109.75 132.07C111.51 130.09 113.92 129.1 116.98 129.1C118.88 129.1 120.3 129.5 121.24 130.3C121.94 130.9 122.29 131.69 122.29 132.67C122.29 136.19 119.25 137.95 113.17 137.95C113.09 138.47 113.05 138.95 113.05 139.39C113.05 140.31 113.25 140.95 113.65 141.31C114.07 141.65 114.66 141.82 115.42 141.82C116.18 141.82 116.96 141.65 117.76 141.31C118.58 140.95 119.16 140.49 119.5 139.93ZM113.38 136.66C114.8 136.66 115.92 136.22 116.74 135.34C117.56 134.5 117.97 133.41 117.97 132.07C117.97 131.61 117.88 131.26 117.7 131.02C117.54 130.76 117.29 130.63 116.95 130.63C116.61 130.63 116.29 130.7 115.99 130.84C115.71 130.96 115.42 131.24 115.12 131.68C114.38 132.68 113.8 134.34 113.38 136.66ZM132.287 134.47C132.567 133.73 132.707 133.04 132.707 132.4C132.707 131.22 132.227 130.63 131.267 130.63C130.767 130.63 130.307 130.86 129.887 131.32C129.487 131.76 129.287 132.26 129.287 132.82C129.287 133.22 129.447 133.58 129.767 133.9C130.227 134.34 131.047 134.92 132.227 135.64C133.407 136.36 134.217 137.02 134.657 137.62C135.117 138.2 135.347 138.9 135.347 139.72C135.347 140.52 135.147 141.29 134.747 142.03C134.367 142.77 133.827 143.4 133.127 143.92C131.627 145.04 129.677 145.6 127.277 145.6C125.977 145.6 124.827 145.26 123.827 144.58C122.827 143.92 122.327 143.2 122.327 142.42C122.327 141.64 122.607 141.02 123.167 140.56C123.747 140.1 124.457 139.87 125.297 139.87C126.137 139.87 126.817 140.03 127.337 140.35C127.077 141.01 126.947 141.56 126.947 142C126.947 143.32 127.507 143.98 128.627 143.98C129.107 143.98 129.507 143.83 129.827 143.53C130.147 143.23 130.307 142.82 130.307 142.3C130.307 141.28 129.447 140.23 127.727 139.15C126.327 138.23 125.467 137.59 125.147 137.23C124.607 136.59 124.337 135.87 124.337 135.07C124.337 134.27 124.527 133.49 124.907 132.73C125.287 131.97 125.827 131.32 126.527 130.78C127.987 129.66 129.987 129.1 132.527 129.1C133.827 129.1 134.857 129.36 135.617 129.88C136.397 130.4 136.787 131.1 136.787 131.98C136.787 132.86 136.517 133.55 135.977 134.05C135.457 134.55 134.717 134.8 133.757 134.8C133.097 134.8 132.607 134.69 132.287 134.47ZM146.876 134.47C147.156 133.73 147.296 133.04 147.296 132.4C147.296 131.22 146.816 130.63 145.856 130.63C145.356 130.63 144.896 130.86 144.476 131.32C144.076 131.76 143.876 132.26 143.876 132.82C143.876 133.22 144.036 133.58 144.356 133.9C144.816 134.34 145.636 134.92 146.816 135.64C147.996 136.36 148.806 137.02 149.246 137.62C149.706 138.2 149.936 138.9 149.936 139.72C149.936 140.52 149.736 141.29 149.336 142.03C148.956 142.77 148.416 143.4 147.716 143.92C146.216 145.04 144.266 145.6 141.866 145.6C140.566 145.6 139.416 145.26 138.416 144.58C137.416 143.92 136.916 143.2 136.916 142.42C136.916 141.64 137.196 141.02 137.756 140.56C138.336 140.1 139.046 139.87 139.886 139.87C140.726 139.87 141.406 140.03 141.926 140.35C141.666 141.01 141.536 141.56 141.536 142C141.536 143.32 142.096 143.98 143.216 143.98C143.696 143.98 144.096 143.83 144.416 143.53C144.736 143.23 144.896 142.82 144.896 142.3C144.896 141.28 144.036 140.23 142.316 139.15C140.916 138.23 140.056 137.59 139.736 137.23C139.196 136.59 138.926 135.87 138.926 135.07C138.926 134.27 139.116 133.49 139.496 132.73C139.876 131.97 140.416 131.32 141.116 130.78C142.576 129.66 144.576 129.1 147.116 129.1C148.416 129.1 149.446 129.36 150.206 129.88C150.986 130.4 151.376 131.1 151.376 131.98C151.376 132.86 151.106 133.55 150.566 134.05C150.046 134.55 149.306 134.8 148.346 134.8C147.686 134.8 147.196 134.69 146.876 134.47Z" fill="white"/>
<defs>
<linearGradient id="paint0_linear_11_244" x1="83.5719" y1="53.2211" x2="67.951" y2="36.7627" gradientUnits="userSpaceOnUse">
<stop stop-color="#E0E5EC"/>
<stop offset="1" stop-color="#F5F5F5"/>
</linearGradient>
<linearGradient id="paint1_linear_11_244" x1="90.7716" y1="70.2504" x2="75.5379" y2="63.2791" gradientUnits="userSpaceOnUse">
<stop stop-color="#DDE4EC"/>
<stop offset="1" stop-color="#E3E7EC"/>
</linearGradient>
</defs>
</svg>
